<?xml version="1.0" encoding="UTF-8"?>

<!DOCTYPE svg
  PUBLIC "-//W3C//DTD SVG 1.0/EN" "http://www.w3.org/TR/2001/REC-SVG-20010904/DTD/svg10.dtd">
<svg width="300" height="300">
   <g xmlns:emath="http://www.exslt.org/math" transform="translate(0,120) scale(24,-1) translate(-5,0)">
      <line x1="-5" y1="0" x2="5" y2="0" style="stroke-width:0.5;stroke:black"/>
      <line x1="-5" y1="120" x2="-5" y2="-120"/>
      <text x="-5" y="-120" transform="translate(-5,-120) scale(0.041666666666666664,-1) translate(5,120)" style="text-anchor:middle;font-size:8;baseline-shift:-110%" dy="-120">-5.0</text>
      <line x1="-4.75" y1="2" x2="-4.75" y2="-2"/>
      <line x1="-4.5" y1="2" x2="-4.5" y2="-2"/>
      <line x1="-4.25" y1="2" x2="-4.25" y2="-2"/>
      <line x1="-4" y1="120" x2="-4" y2="-120"/>
      <text x="-4" y="-120" transform="translate(-4,-120) scale(0.041666666666666664,-1) translate(4,120)" style="text-anchor:middle;font-size:8;baseline-shift:-110%" dy="-120">-4.0</text>
      <line x1="-3.75" y1="2" x2="-3.75" y2="-2"/>
      <line x1="-3.5" y1="2" x2="-3.5" y2="-2"/>
      <line x1="-3.25" y1="2" x2="-3.25" y2="-2"/>
      <line x1="-3" y1="120" x2="-3" y2="-120"/>
      <text x="-3" y="-120" transform="translate(-3,-120) scale(0.041666666666666664,-1) translate(3,120)" style="text-anchor:middle;font-size:8;baseline-shift:-110%" dy="-120">-3.0</text>
      <line x1="-2.75" y1="2" x2="-2.75" y2="-2"/>
      <line x1="-2.5" y1="2" x2="-2.5" y2="-2"/>
      <line x1="-2.25" y1="2" x2="-2.25" y2="-2"/>
      <line x1="-2" y1="120" x2="-2" y2="-120"/>
      <text x="-2" y="-120" transform="translate(-2,-120) scale(0.041666666666666664,-1) translate(2,120)" style="text-anchor:middle;font-size:8;baseline-shift:-110%" dy="-120">-2.0</text>
      <line x1="-1.75" y1="2" x2="-1.75" y2="-2"/>
      <line x1="-1.5" y1="2" x2="-1.5" y2="-2"/>
      <line x1="-1.25" y1="2" x2="-1.25" y2="-2"/>
      <line x1="-1" y1="120" x2="-1" y2="-120"/>
      <text x="-1" y="-120" transform="translate(-1,-120) scale(0.041666666666666664,-1) translate(1,120)" style="text-anchor:middle;font-size:8;baseline-shift:-110%" dy="-120">-1.0</text>
      <line x1="-0.75" y1="2" x2="-0.75" y2="-2"/>
      <line x1="-0.5" y1="2" x2="-0.5" y2="-2"/>
      <line x1="-0.25" y1="2" x2="-0.25" y2="-2"/>
      <line x1="0" y1="120" x2="0" y2="-120"/>
      <text x="0" y="-120" transform="translate(0,-120) scale(0.041666666666666664,-1) translate(0,120)" style="text-anchor:middle;font-size:8;baseline-shift:-110%" dy="-120">0.0</text>
      <line x1="0.25" y1="2" x2="0.25" y2="-2"/>
      <line x1="0.5" y1="2" x2="0.5" y2="-2"/>
      <line x1="0.75" y1="2" x2="0.75" y2="-2"/>
      <line x1="1" y1="120" x2="1" y2="-120"/>
      <text x="1" y="-120" transform="translate(1,-120) scale(0.041666666666666664,-1) translate(-1,120)" style="text-anchor:middle;font-size:8;baseline-shift:-110%" dy="-120">1.0</text>
      <line x1="1.25" y1="2" x2="1.25" y2="-2"/>
      <line x1="1.5" y1="2" x2="1.5" y2="-2"/>
      <line x1="1.75" y1="2" x2="1.75" y2="-2"/>
      <line x1="2" y1="120" x2="2" y2="-120"/>
      <text x="2" y="-120" transform="translate(2,-120) scale(0.041666666666666664,-1) translate(-2,120)" style="text-anchor:middle;font-size:8;baseline-shift:-110%" dy="-120">2.0</text>
      <line x1="2.25" y1="2" x2="2.25" y2="-2"/>
      <line x1="2.5" y1="2" x2="2.5" y2="-2"/>
      <line x1="2.75" y1="2" x2="2.75" y2="-2"/>
      <line x1="3" y1="120" x2="3" y2="-120"/>
      <text x="3" y="-120" transform="translate(3,-120) scale(0.041666666666666664,-1) translate(-3,120)" style="text-anchor:middle;font-size:8;baseline-shift:-110%" dy="-120">3.0</text>
      <line x1="3.25" y1="2" x2="3.25" y2="-2"/>
      <line x1="3.5" y1="2" x2="3.5" y2="-2"/>
      <line x1="3.75" y1="2" x2="3.75" y2="-2"/>
      <line x1="4" y1="120" x2="4" y2="-120"/>
      <text x="4" y="-120" transform="translate(4,-120) scale(0.041666666666666664,-1) translate(-4,120)" style="text-anchor:middle;font-size:8;baseline-shift:-110%" dy="-120">4.0</text>
      <line x1="4.25" y1="2" x2="4.25" y2="-2"/>
      <line x1="4.5" y1="2" x2="4.5" y2="-2"/>
      <line x1="4.75" y1="2" x2="4.75" y2="-2"/>
      <line x1="5" y1="120" x2="5" y2="-120"/>
      <text x="5" y="-120" transform="translate(5,-120) scale(0.041666666666666664,-1) translate(-5,120)" style="text-anchor:middle;font-size:8;baseline-shift:-110%" dy="-120">5.0</text>
   </g>
   <g xmlns:emath="http://www.exslt.org/math" transform="translate(-120,240) scale(1,-24) translate(0,5)">
      <line x1="0" y1="-5" x2="0" y2="5" style="stroke-width:0.5;stroke:black"/>
      <line x1="-120" y1="-5" x2="120" y2="-5"/>
      <text y="-5" transform="translate(-120,-5) scale(1,-0.041666666666666664) translate(120,5)" style="text-anchor:end;font-size:8;baseline-shift:-50%" x="0">-5.0</text>
      <line x1="-2" y1="-4.75" x2="2" y2="-4.75"/>
      <line x1="-2" y1="-4.5" x2="2" y2="-4.5"/>
      <line x1="-2" y1="-4.25" x2="2" y2="-4.25"/>
      <line x1="-120" y1="-4" x2="120" y2="-4"/>
      <text y="-4" transform="translate(-120,-4) scale(1,-0.041666666666666664) translate(120,4)" style="text-anchor:end;font-size:8;baseline-shift:-50%" x="0">-4.0</text>
      <line x1="-2" y1="-3.75" x2="2" y2="-3.75"/>
      <line x1="-2" y1="-3.5" x2="2" y2="-3.5"/>
      <line x1="-2" y1="-3.25" x2="2" y2="-3.25"/>
      <line x1="-120" y1="-3" x2="120" y2="-3"/>
      <text y="-3" transform="translate(-120,-3) scale(1,-0.041666666666666664) translate(120,3)" style="text-anchor:end;font-size:8;baseline-shift:-50%" x="0">-3.0</text>
      <line x1="-2" y1="-2.75" x2="2" y2="-2.75"/>
      <line x1="-2" y1="-2.5" x2="2" y2="-2.5"/>
      <line x1="-2" y1="-2.25" x2="2" y2="-2.25"/>
      <line x1="-120" y1="-2" x2="120" y2="-2"/>
      <text y="-2" transform="translate(-120,-2) scale(1,-0.041666666666666664) translate(120,2)" style="text-anchor:end;font-size:8;baseline-shift:-50%" x="0">-2.0</text>
      <line x1="-2" y1="-1.75" x2="2" y2="-1.75"/>
      <line x1="-2" y1="-1.5" x2="2" y2="-1.5"/>
      <line x1="-2" y1="-1.25" x2="2" y2="-1.25"/>
      <line x1="-120" y1="-1" x2="120" y2="-1"/>
      <text y="-1" transform="translate(-120,-1) scale(1,-0.041666666666666664) translate(120,1)" style="text-anchor:end;font-size:8;baseline-shift:-50%" x="0">-1.0</text>
      <line x1="-2" y1="-0.75" x2="2" y2="-0.75"/>
      <line x1="-2" y1="-0.5" x2="2" y2="-0.5"/>
      <line x1="-2" y1="-0.25" x2="2" y2="-0.25"/>
      <line x1="-120" y1="0" x2="120" y2="0"/>
      <text y="0" transform="translate(-120,0) scale(1,-0.041666666666666664) translate(120,0)" style="text-anchor:end;font-size:8;baseline-shift:-50%" x="0">0.0</text>
      <line x1="-2" y1="0.25" x2="2" y2="0.25"/>
      <line x1="-2" y1="0.5" x2="2" y2="0.5"/>
      <line x1="-2" y1="0.75" x2="2" y2="0.75"/>
      <line x1="-120" y1="1" x2="120" y2="1"/>
      <text y="1" transform="translate(-120,1) scale(1,-0.041666666666666664) translate(120,-1)" style="text-anchor:end;font-size:8;baseline-shift:-50%" x="0">1.0</text>
      <line x1="-2" y1="1.25" x2="2" y2="1.25"/>
      <line x1="-2" y1="1.5" x2="2" y2="1.5"/>
      <line x1="-2" y1="1.75" x2="2" y2="1.75"/>
      <line x1="-120" y1="2" x2="120" y2="2"/>
      <text y="2" transform="translate(-120,2) scale(1,-0.041666666666666664) translate(120,-2)" style="text-anchor:end;font-size:8;baseline-shift:-50%" x="0">2.0</text>
      <line x1="-2" y1="2.25" x2="2" y2="2.25"/>
      <line x1="-2" y1="2.5" x2="2" y2="2.5"/>
      <line x1="-2" y1="2.75" x2="2" y2="2.75"/>
      <line x1="-120" y1="3" x2="120" y2="3"/>
      <text y="3" transform="translate(-120,3) scale(1,-0.041666666666666664) translate(120,-3)" style="text-anchor:end;font-size:8;baseline-shift:-50%" x="0">3.0</text>
      <line x1="-2" y1="3.25" x2="2" y2="3.25"/>
      <line x1="-2" y1="3.5" x2="2" y2="3.5"/>
      <line x1="-2" y1="3.75" x2="2" y2="3.75"/>
      <line x1="-120" y1="4" x2="120" y2="4"/>
      <text y="4" transform="translate(-120,4) scale(1,-0.041666666666666664) translate(120,-4)" style="text-anchor:end;font-size:8;baseline-shift:-50%" x="0">4.0</text>
      <line x1="-2" y1="4.25" x2="2" y2="4.25"/>
      <line x1="-2" y1="4.5" x2="2" y2="4.5"/>
      <line x1="-2" y1="4.75" x2="2" y2="4.75"/>
      <line x1="-120" y1="5" x2="120" y2="5"/>
      <text y="5" transform="translate(-120,5) scale(1,-0.041666666666666664) translate(120,-5)" style="text-anchor:end;font-size:8;baseline-shift:-50%" x="0">5.0</text>
   </g>
</svg>