<?xml version="1.0" encoding="UTF-8"?>

<!DOCTYPE svg
  PUBLIC "-//W3C//DTD SVG 1.0/EN" "http://www.w3.org/TR/2001/REC-SVG-20010904/DTD/svg10.dtd">
<svg width="300" height="300">
   <g xmlns:emath="http://www.exslt.org/math" transform="translate(30,270) scale(24,-1) translate(0,0)">
      <line x1="0" y1="0" x2="10" y2="0" style="stroke-width:0.5;stroke:black"/>
      <line x1="0" y1="4" x2="0" y2="-4"/>
      <text x="0" y="-4" transform="translate(0,-4) scale(0.041666666666666664,-1) translate(0,4)" style="text-anchor:middle;font-size:8;baseline-shift:-110%">0.0</text>
      <line x1="0.25" y1="2" x2="0.25" y2="-2"/>
      <line x1="0.5" y1="2" x2="0.5" y2="-2"/>
      <line x1="0.75" y1="2" x2="0.75" y2="-2"/>
      <line x1="1" y1="4" x2="1" y2="-4"/>
      <text x="1" y="-4" transform="translate(1,-4) scale(0.041666666666666664,-1) translate(-1,4)" style="text-anchor:middle;font-size:8;baseline-shift:-110%">1.0</text>
      <line x1="1.25" y1="2" x2="1.25" y2="-2"/>
      <line x1="1.5" y1="2" x2="1.5" y2="-2"/>
      <line x1="1.75" y1="2" x2="1.75" y2="-2"/>
      <line x1="2" y1="4" x2="2" y2="-4"/>
      <text x="2" y="-4" transform="translate(2,-4) scale(0.041666666666666664,-1) translate(-2,4)" style="text-anchor:middle;font-size:8;baseline-shift:-110%">2.0</text>
      <line x1="2.25" y1="2" x2="2.25" y2="-2"/>
      <line x1="2.5" y1="2" x2="2.5" y2="-2"/>
      <line x1="2.75" y1="2" x2="2.75" y2="-2"/>
      <line x1="3" y1="4" x2="3" y2="-4"/>
      <text x="3" y="-4" transform="translate(3,-4) scale(0.041666666666666664,-1) translate(-3,4)" style="text-anchor:middle;font-size:8;baseline-shift:-110%">3.0</text>
      <line x1="3.25" y1="2" x2="3.25" y2="-2"/>
      <line x1="3.5" y1="2" x2="3.5" y2="-2"/>
      <line x1="3.75" y1="2" x2="3.75" y2="-2"/>
      <line x1="4" y1="4" x2="4" y2="-4"/>
      <text x="4" y="-4" transform="translate(4,-4) scale(0.041666666666666664,-1) translate(-4,4)" style="text-anchor:middle;font-size:8;baseline-shift:-110%">4.0</text>
      <line x1="4.25" y1="2" x2="4.25" y2="-2"/>
      <line x1="4.5" y1="2" x2="4.5" y2="-2"/>
      <line x1="4.75" y1="2" x2="4.75" y2="-2"/>
      <line x1="5" y1="4" x2="5" y2="-4"/>
      <text x="5" y="-4" transform="translate(5,-4) scale(0.041666666666666664,-1) translate(-5,4)" style="text-anchor:middle;font-size:8;baseline-shift:-110%">5.0</text>
      <line x1="5.25" y1="2" x2="5.25" y2="-2"/>
      <line x1="5.5" y1="2" x2="5.5" y2="-2"/>
      <line x1="5.75" y1="2" x2="5.75" y2="-2"/>
      <line x1="6" y1="4" x2="6" y2="-4"/>
      <text x="6" y="-4" transform="translate(6,-4) scale(0.041666666666666664,-1) translate(-6,4)" style="text-anchor:middle;font-size:8;baseline-shift:-110%">6.0</text>
      <line x1="6.25" y1="2" x2="6.25" y2="-2"/>
      <line x1="6.5" y1="2" x2="6.5" y2="-2"/>
      <line x1="6.75" y1="2" x2="6.75" y2="-2"/>
      <line x1="7" y1="4" x2="7" y2="-4"/>
      <text x="7" y="-4" transform="translate(7,-4) scale(0.041666666666666664,-1) translate(-7,4)" style="text-anchor:middle;font-size:8;baseline-shift:-110%">7.0</text>
      <line x1="7.25" y1="2" x2="7.25" y2="-2"/>
      <line x1="7.5" y1="2" x2="7.5" y2="-2"/>
      <line x1="7.75" y1="2" x2="7.75" y2="-2"/>
      <line x1="8" y1="4" x2="8" y2="-4"/>
      <text x="8" y="-4" transform="translate(8,-4) scale(0.041666666666666664,-1) translate(-8,4)" style="text-anchor:middle;font-size:8;baseline-shift:-110%">8.0</text>
      <line x1="8.25" y1="2" x2="8.25" y2="-2"/>
      <line x1="8.5" y1="2" x2="8.5" y2="-2"/>
      <line x1="8.75" y1="2" x2="8.75" y2="-2"/>
      <line x1="9" y1="4" x2="9" y2="-4"/>
      <text x="9" y="-4" transform="translate(9,-4) scale(0.041666666666666664,-1) translate(-9,4)" style="text-anchor:middle;font-size:8;baseline-shift:-110%">9.0</text>
      <line x1="9.25" y1="2" x2="9.25" y2="-2"/>
      <line x1="9.5" y1="2" x2="9.5" y2="-2"/>
      <line x1="9.75" y1="2" x2="9.75" y2="-2"/>
      <line x1="10" y1="4" x2="10" y2="-4"/>
      <text x="10" y="-4" transform="translate(10,-4) scale(0.041666666666666664,-1) translate(-10,4)" style="text-anchor:middle;font-size:8;baseline-shift:-110%">10.0</text>
   </g>
   <g xmlns:emath="http://www.exslt.org/math" transform="translate(30,270) scale(1,-24) translate(0,0)">
      <line x1="0" y1="0" x2="0" y2="10" style="stroke-width:0.5;stroke:black"/>
      <line x1="-4" y1="0" x2="4" y2="0"/>
      <text x="-4" y="0" transform="translate(-4,0) scale(1,-0.041666666666666664) translate(4,0)" style="text-anchor:end;font-size:8;baseline-shift:-50%">0.0</text>
      <line x1="-2" y1="0.25" x2="2" y2="0.25"/>
      <line x1="-2" y1="0.5" x2="2" y2="0.5"/>
      <line x1="-2" y1="0.75" x2="2" y2="0.75"/>
      <line x1="-4" y1="1" x2="4" y2="1"/>
      <text x="-4" y="1" transform="translate(-4,1) scale(1,-0.041666666666666664) translate(4,-1)" style="text-anchor:end;font-size:8;baseline-shift:-50%">1.0</text>
      <line x1="-2" y1="1.25" x2="2" y2="1.25"/>
      <line x1="-2" y1="1.5" x2="2" y2="1.5"/>
      <line x1="-2" y1="1.75" x2="2" y2="1.75"/>
      <line x1="-4" y1="2" x2="4" y2="2"/>
      <text x="-4" y="2" transform="translate(-4,2) scale(1,-0.041666666666666664) translate(4,-2)" style="text-anchor:end;font-size:8;baseline-shift:-50%">2.0</text>
      <line x1="-2" y1="2.25" x2="2" y2="2.25"/>
      <line x1="-2" y1="2.5" x2="2" y2="2.5"/>
      <line x1="-2" y1="2.75" x2="2" y2="2.75"/>
      <line x1="-4" y1="3" x2="4" y2="3"/>
      <text x="-4" y="3" transform="translate(-4,3) scale(1,-0.041666666666666664) translate(4,-3)" style="text-anchor:end;font-size:8;baseline-shift:-50%">3.0</text>
      <line x1="-2" y1="3.25" x2="2" y2="3.25"/>
      <line x1="-2" y1="3.5" x2="2" y2="3.5"/>
      <line x1="-2" y1="3.75" x2="2" y2="3.75"/>
      <line x1="-4" y1="4" x2="4" y2="4"/>
      <text x="-4" y="4" transform="translate(-4,4) scale(1,-0.041666666666666664) translate(4,-4)" style="text-anchor:end;font-size:8;baseline-shift:-50%">4.0</text>
      <line x1="-2" y1="4.25" x2="2" y2="4.25"/>
      <line x1="-2" y1="4.5" x2="2" y2="4.5"/>
      <line x1="-2" y1="4.75" x2="2" y2="4.75"/>
      <line x1="-4" y1="5" x2="4" y2="5"/>
      <text x="-4" y="5" transform="translate(-4,5) scale(1,-0.041666666666666664) translate(4,-5)" style="text-anchor:end;font-size:8;baseline-shift:-50%">5.0</text>
      <line x1="-2" y1="5.25" x2="2" y2="5.25"/>
      <line x1="-2" y1="5.5" x2="2" y2="5.5"/>
      <line x1="-2" y1="5.75" x2="2" y2="5.75"/>
      <line x1="-4" y1="6" x2="4" y2="6"/>
      <text x="-4" y="6" transform="translate(-4,6) scale(1,-0.041666666666666664) translate(4,-6)" style="text-anchor:end;font-size:8;baseline-shift:-50%">6.0</text>
      <line x1="-2" y1="6.25" x2="2" y2="6.25"/>
      <line x1="-2" y1="6.5" x2="2" y2="6.5"/>
      <line x1="-2" y1="6.75" x2="2" y2="6.75"/>
      <line x1="-4" y1="7" x2="4" y2="7"/>
      <text x="-4" y="7" transform="translate(-4,7) scale(1,-0.041666666666666664) translate(4,-7)" style="text-anchor:end;font-size:8;baseline-shift:-50%">7.0</text>
      <line x1="-2" y1="7.25" x2="2" y2="7.25"/>
      <line x1="-2" y1="7.5" x2="2" y2="7.5"/>
      <line x1="-2" y1="7.75" x2="2" y2="7.75"/>
      <line x1="-4" y1="8" x2="4" y2="8"/>
      <text x="-4" y="8" transform="translate(-4,8) scale(1,-0.041666666666666664) translate(4,-8)" style="text-anchor:end;font-size:8;baseline-shift:-50%">8.0</text>
      <line x1="-2" y1="8.25" x2="2" y2="8.25"/>
      <line x1="-2" y1="8.5" x2="2" y2="8.5"/>
      <line x1="-2" y1="8.75" x2="2" y2="8.75"/>
      <line x1="-4" y1="9" x2="4" y2="9"/>
      <text x="-4" y="9" transform="translate(-4,9) scale(1,-0.041666666666666664) translate(4,-9)" style="text-anchor:end;font-size:8;baseline-shift:-50%">9.0</text>
      <line x1="-2" y1="9.25" x2="2" y2="9.25"/>
      <line x1="-2" y1="9.5" x2="2" y2="9.5"/>
      <line x1="-2" y1="9.75" x2="2" y2="9.75"/>
      <line x1="-4" y1="10" x2="4" y2="10"/>
      <text x="-4" y="10" transform="translate(-4,10) scale(1,-0.041666666666666664) translate(4,-10)" style="text-anchor:end;font-size:8;baseline-shift:-50%">10.0</text>
   </g>
</svg>