<?xml version="1.0" encoding="UTF-8"?>

<!DOCTYPE svg
  PUBLIC "-//W3C//DTD SVG 1.0/EN" "http://www.w3.org/TR/2001/REC-SVG-20010904/DTD/svg10.dtd">
<svg width="600" height="400">
   <g xmlns:emath="http://www.exslt.org/math" transform="translate(20,370)                              scale(1,-7)                             translate(0,-30)">
      <line x1="12.244897959183673" y1="52.42" x2="12.244897959183673" y2="54.18" style="stroke: black; stroke-width: 1 "/>
      <line x1="8.244897959183673" y1="53.24" x2="12.244897959183673" y2="53.24" style="stroke: black; stroke-width: 0.2857142857142857"/>
      <line x1="12.244897959183673" y1="52.57" x2="16.244897959183675" y2="52.57" style="stroke: black; stroke-width: 0.2857142857142857"/>
      <line x1="24.489795918367346" y1="52.5" x2="24.489795918367346" y2="55.78" style="stroke: black; stroke-width: 1 "/>
      <line x1="20.489795918367346" y1="52.58" x2="24.489795918367346" y2="52.58" style="stroke: black; stroke-width: 0.2857142857142857"/>
      <line x1="24.489795918367346" y1="55.54" x2="28.489795918367346" y2="55.54" style="stroke: black; stroke-width: 0.2857142857142857"/>
      <line x1="36.73469387755102" y1="54.2" x2="36.73469387755102" y2="55.48" style="stroke: black; stroke-width: 1 "/>
      <line x1="32.73469387755102" y1="54.84" x2="36.73469387755102" y2="54.84" style="stroke: black; stroke-width: 0.2857142857142857"/>
      <line x1="36.73469387755102" y1="54.22" x2="40.73469387755102" y2="54.22" style="stroke: black; stroke-width: 0.2857142857142857"/>
      <line x1="48.97959183673469" y1="53" x2="48.97959183673469" y2="55.55" style="stroke: black; stroke-width: 1 "/>
      <line x1="44.97959183673469" y1="53.01" x2="48.97959183673469" y2="53.01" style="stroke: black; stroke-width: 0.2857142857142857"/>
      <line x1="48.97959183673469" y1="55.25" x2="52.97959183673469" y2="55.25" style="stroke: black; stroke-width: 0.2857142857142857"/>
      <line x1="61.224489795918366" y1="55.37" x2="61.224489795918366" y2="56.44" style="stroke: black; stroke-width: 1 "/>
      <line x1="57.224489795918366" y1="55.66" x2="61.224489795918366" y2="55.66" style="stroke: black; stroke-width: 0.2857142857142857"/>
      <line x1="61.224489795918366" y1="55.68" x2="65.22448979591837" y2="55.68" style="stroke: black; stroke-width: 0.2857142857142857"/>
      <line x1="73.46938775510203" y1="55.35" x2="73.46938775510203" y2="56.29" style="stroke: black; stroke-width: 1 "/>
      <line x1="69.46938775510203" y1="55.53" x2="73.46938775510203" y2="55.53" style="stroke: black; stroke-width: 0.2857142857142857"/>
      <line x1="73.46938775510203" y1="55.99" x2="77.46938775510203" y2="55.99" style="stroke: black; stroke-width: 0.2857142857142857"/>
      <line x1="85.71428571428571" y1="54.32" x2="85.71428571428571" y2="55.942" style="stroke: black; stroke-width: 1 "/>
      <line x1="81.71428571428571" y1="55.47" x2="85.71428571428571" y2="55.47" style="stroke: black; stroke-width: 0.2857142857142857"/>
      <line x1="85.71428571428571" y1="54.36" x2="89.71428571428571" y2="54.36" style="stroke: black; stroke-width: 0.2857142857142857"/>
      <line x1="97.95918367346938" y1="53.9" x2="97.95918367346938" y2="55.1" style="stroke: black; stroke-width: 1 "/>
      <line x1="93.95918367346938" y1="54.37" x2="97.95918367346938" y2="54.37" style="stroke: black; stroke-width: 0.2857142857142857"/>
      <line x1="97.95918367346938" y1="54.1" x2="101.95918367346938" y2="54.1" style="stroke: black; stroke-width: 0.2857142857142857"/>
      <line x1="110.20408163265306" y1="52.28" x2="110.20408163265306" y2="54.55" style="stroke: black; stroke-width: 1 "/>
      <line x1="106.20408163265306" y1="53.4" x2="110.20408163265306" y2="53.4" style="stroke: black; stroke-width: 0.2857142857142857"/>
      <line x1="110.20408163265306" y1="52.28" x2="114.20408163265306" y2="52.28" style="stroke: black; stroke-width: 0.2857142857142857"/>
      <line x1="122.44897959183673" y1="51.85" x2="122.44897959183673" y2="54.64" style="stroke: black; stroke-width: 1 "/>
      <line x1="118.44897959183673" y1="52.09" x2="122.44897959183673" y2="52.09" style="stroke: black; stroke-width: 0.2857142857142857"/>
      <line x1="122.44897959183673" y1="54.16" x2="126.44897959183673" y2="54.16" style="stroke: black; stroke-width: 0.2857142857142857"/>
      <line x1="134.6938775510204" y1="52.8" x2="134.6938775510204" y2="55" style="stroke: black; stroke-width: 1 "/>
      <line x1="130.6938775510204" y1="54.7" x2="134.6938775510204" y2="54.7" style="stroke: black; stroke-width: 0.2857142857142857"/>
      <line x1="134.6938775510204" y1="52.95" x2="138.6938775510204" y2="52.95" style="stroke: black; stroke-width: 0.2857142857142857"/>
      <line x1="146.93877551020407" y1="51.05" x2="146.93877551020407" y2="54.39" style="stroke: black; stroke-width: 1 "/>
      <line x1="142.93877551020407" y1="51.059899999999999" x2="146.93877551020407" y2="51.059899999999999" style="stroke: black; stroke-width: 0.2857142857142857"/>
      <line x1="146.93877551020407" y1="54.13" x2="150.93877551020407" y2="54.13" style="stroke: black; stroke-width: 0.2857142857142857"/>
      <line x1="159.18367346938774" y1="52.86" x2="159.18367346938774" y2="54.94" style="stroke: black; stroke-width: 1 "/>
      <line x1="155.18367346938774" y1="54.603000000000002" x2="159.18367346938774" y2="54.603000000000002" style="stroke: black; stroke-width: 0.2857142857142857"/>
      <line x1="159.18367346938774" y1="54.92" x2="163.18367346938774" y2="54.92" style="stroke: black; stroke-width: 0.2857142857142857"/>
      <line x1="171.42857142857142" y1="54" x2="171.42857142857142" y2="55.79" style="stroke: black; stroke-width: 1 "/>
      <line x1="167.42857142857142" y1="54.55" x2="171.42857142857142" y2="54.55" style="stroke: black; stroke-width: 0.2857142857142857"/>
      <line x1="171.42857142857142" y1="54.7" x2="175.42857142857142" y2="54.7" style="stroke: black; stroke-width: 0.2857142857142857"/>
      <line x1="183.6734693877551" y1="52.58" x2="183.6734693877551" y2="54.39" style="stroke: black; stroke-width: 1 "/>
      <line x1="179.6734693877551" y1="54.12" x2="183.6734693877551" y2="54.12" style="stroke: black; stroke-width: 0.2857142857142857"/>
      <line x1="183.6734693877551" y1="52.66" x2="187.6734693877551" y2="52.66" style="stroke: black; stroke-width: 0.2857142857142857"/>
      <line x1="195.91836734693877" y1="51.33" x2="195.91836734693877" y2="52.92" style="stroke: black; stroke-width: 1 "/>
      <line x1="191.91836734693877" y1="52.38" x2="195.91836734693877" y2="52.38" style="stroke: black; stroke-width: 0.2857142857142857"/>
      <line x1="195.91836734693877" y1="51.44" x2="199.91836734693877" y2="51.44" style="stroke: black; stroke-width: 0.2857142857142857"/>
      <line x1="208.16326530612244" y1="50.45" x2="208.16326530612244" y2="52.52" style="stroke: black; stroke-width: 1 "/>
      <line x1="204.16326530612244" y1="51.24" x2="208.16326530612244" y2="51.24" style="stroke: black; stroke-width: 0.2857142857142857"/>
      <line x1="208.16326530612244" y1="52.47" x2="212.16326530612244" y2="52.47" style="stroke: black; stroke-width: 0.2857142857142857"/>
      <line x1="220.40816326530611" y1="53.05" x2="220.40816326530611" y2="54.9" style="stroke: black; stroke-width: 1 "/>
      <line x1="216.40816326530611" y1="53.09" x2="220.40816326530611" y2="53.09" style="stroke: black; stroke-width: 0.2857142857142857"/>
      <line x1="220.40816326530611" y1="54.85" x2="224.40816326530611" y2="54.85" style="stroke: black; stroke-width: 0.2857142857142857"/>
      <line x1="232.6530612244898" y1="52.588999999999999" x2="232.6530612244898" y2="54.93" style="stroke: black; stroke-width: 1 "/>
      <line x1="228.6530612244898" y1="54.41" x2="232.6530612244898" y2="54.41" style="stroke: black; stroke-width: 0.2857142857142857"/>
      <line x1="232.6530612244898" y1="52.92" x2="236.6530612244898" y2="52.92" style="stroke: black; stroke-width: 0.2857142857142857"/>
      <line x1="244.89795918367346" y1="52.97" x2="244.89795918367346" y2="54.73" style="stroke: black; stroke-width: 1 "/>
      <line x1="240.89795918367346" y1="53.31" x2="244.89795918367346" y2="53.31" style="stroke: black; stroke-width: 0.2857142857142857"/>
      <line x1="244.89795918367346" y1="53.21" x2="248.89795918367346" y2="53.21" style="stroke: black; stroke-width: 0.2857142857142857"/>
      <line x1="257.1428571428571" y1="52.13" x2="257.1428571428571" y2="54.2" style="stroke: black; stroke-width: 1 "/>
      <line x1="253.1428571428571" y1="53.69" x2="257.1428571428571" y2="53.69" style="stroke: black; stroke-width: 0.2857142857142857"/>
      <line x1="257.1428571428571" y1="52.24" x2="261.1428571428571" y2="52.24" style="stroke: black; stroke-width: 0.2857142857142857"/>
      <line x1="269.3877551020408" y1="51.25" x2="269.3877551020408" y2="53.075000000000003" style="stroke: black; stroke-width: 1 "/>
      <line x1="265.3877551020408" y1="52.04" x2="269.3877551020408" y2="52.04" style="stroke: black; stroke-width: 0.2857142857142857"/>
      <line x1="269.3877551020408" y1="52.91" x2="273.3877551020408" y2="52.91" style="stroke: black; stroke-width: 0.2857142857142857"/>
      <line x1="281.63265306122446" y1="51.48" x2="281.63265306122446" y2="53.73" style="stroke: black; stroke-width: 1 "/>
      <line x1="277.63265306122446" y1="53.37" x2="281.63265306122446" y2="53.37" style="stroke: black; stroke-width: 0.2857142857142857"/>
      <line x1="281.63265306122446" y1="51.86" x2="285.63265306122446" y2="51.86" style="stroke: black; stroke-width: 0.2857142857142857"/>
      <line x1="293.87755102040813" y1="48" x2="293.87755102040813" y2="51.86" style="stroke: black; stroke-width: 1 "/>
      <line x1="289.87755102040813" y1="51.39" x2="293.87755102040813" y2="51.39" style="stroke: black; stroke-width: 0.2857142857142857"/>
      <line x1="293.87755102040813" y1="51.8" x2="297.87755102040813" y2="51.8" style="stroke: black; stroke-width: 0.2857142857142857"/>
      <line x1="306.1224489795918" y1="50.64" x2="306.1224489795918" y2="52.79" style="stroke: black; stroke-width: 1 "/>
      <line x1="302.1224489795918" y1="51.31" x2="306.1224489795918" y2="51.31" style="stroke: black; stroke-width: 0.2857142857142857"/>
      <line x1="306.1224489795918" y1="51.25" x2="310.1224489795918" y2="51.25" style="stroke: black; stroke-width: 0.2857142857142857"/>
      <line x1="318.3673469387755" y1="51.17" x2="318.3673469387755" y2="53.3" style="stroke: black; stroke-width: 1 "/>
      <line x1="314.3673469387755" y1="52.52" x2="318.3673469387755" y2="52.52" style="stroke: black; stroke-width: 0.2857142857142857"/>
      <line x1="318.3673469387755" y1="52" x2="322.3673469387755" y2="52" style="stroke: black; stroke-width: 0.2857142857142857"/>
      <line x1="330.61224489795916" y1="50.66" x2="330.61224489795916" y2="52.74" style="stroke: black; stroke-width: 1 "/>
      <line x1="326.61224489795916" y1="52.06" x2="330.61224489795916" y2="52.06" style="stroke: black; stroke-width: 0.2857142857142857"/>
      <line x1="330.61224489795916" y1="51.11" x2="334.61224489795916" y2="51.11" style="stroke: black; stroke-width: 0.2857142857142857"/>
      <line x1="342.85714285714283" y1="48.811999999999998" x2="342.85714285714283" y2="50.89" style="stroke: black; stroke-width: 1 "/>
      <line x1="338.85714285714283" y1="50" x2="342.85714285714283" y2="50" style="stroke: black; stroke-width: 0.2857142857142857"/>
      <line x1="342.85714285714283" y1="49.56" x2="346.85714285714283" y2="49.56" style="stroke: black; stroke-width: 0.2857142857142857"/>
      <line x1="355.1020408163265" y1="45.9" x2="355.1020408163265" y2="49.99" style="stroke: black; stroke-width: 1 "/>
      <line x1="351.1020408163265" y1="48.95" x2="355.1020408163265" y2="48.95" style="stroke: black; stroke-width: 0.2857142857142857"/>
      <line x1="355.1020408163265" y1="46.31" x2="359.1020408163265" y2="46.31" style="stroke: black; stroke-width: 0.2857142857142857"/>
      <line x1="367.3469387755102" y1="42.97" x2="367.3469387755102" y2="46.98" style="stroke: black; stroke-width: 1 "/>
      <line x1="363.3469387755102" y1="46.49" x2="367.3469387755102" y2="46.49" style="stroke: black; stroke-width: 0.2857142857142857"/>
      <line x1="367.3469387755102" y1="43.01" x2="371.3469387755102" y2="43.01" style="stroke: black; stroke-width: 0.2857142857142857"/>
      <line x1="379.59183673469386" y1="41.41" x2="379.59183673469386" y2="46.36" style="stroke: black; stroke-width: 1 "/>
      <line x1="375.59183673469386" y1="41.41" x2="379.59183673469386" y2="41.41" style="stroke: black; stroke-width: 0.2857142857142857"/>
      <line x1="379.59183673469386" y1="46.23" x2="383.59183673469386" y2="46.23" style="stroke: black; stroke-width: 0.2857142857142857"/>
      <line x1="391.83673469387753" y1="42.44" x2="391.83673469387753" y2="45.715000000000003" style="stroke: black; stroke-width: 1 "/>
      <line x1="387.83673469387753" y1="45.49" x2="391.83673469387753" y2="45.49" style="stroke: black; stroke-width: 0.2857142857142857"/>
      <line x1="391.83673469387753" y1="42.83" x2="395.83673469387753" y2="42.83" style="stroke: black; stroke-width: 0.2857142857142857"/>
      <line x1="404.0816326530612" y1="43.68" x2="404.0816326530612" y2="45.41" style="stroke: black; stroke-width: 1 "/>
      <line x1="400.0816326530612" y1="43.74" x2="404.0816326530612" y2="43.74" style="stroke: black; stroke-width: 0.2857142857142857"/>
      <line x1="404.0816326530612" y1="45.35" x2="408.0816326530612" y2="45.35" style="stroke: black; stroke-width: 0.2857142857142857"/>
      <line x1="416.3265306122449" y1="46.55" x2="416.3265306122449" y2="48.3" style="stroke: black; stroke-width: 1 "/>
      <line x1="412.3265306122449" y1="46.85" x2="416.3265306122449" y2="46.85" style="stroke: black; stroke-width: 0.2857142857142857"/>
      <line x1="416.3265306122449" y1="48.25" x2="420.3265306122449" y2="48.25" style="stroke: black; stroke-width: 0.2857142857142857"/>
      <line x1="428.57142857142856" y1="47.33" x2="428.57142857142856" y2="48.83" style="stroke: black; stroke-width: 1 "/>
      <line x1="424.57142857142856" y1="47.55" x2="428.57142857142856" y2="47.55" style="stroke: black; stroke-width: 0.2857142857142857"/>
      <line x1="428.57142857142856" y1="48.1" x2="432.57142857142856" y2="48.1" style="stroke: black; stroke-width: 0.2857142857142857"/>
      <line x1="440.81632653061223" y1="46.36" x2="440.81632653061223" y2="48" style="stroke: black; stroke-width: 1 "/>
      <line x1="436.81632653061223" y1="47.61" x2="440.81632653061223" y2="47.61" style="stroke: black; stroke-width: 0.2857142857142857"/>
      <line x1="440.81632653061223" y1="47.98" x2="444.81632653061223" y2="47.98" style="stroke: black; stroke-width: 0.2857142857142857"/>
      <line x1="453.0612244897959" y1="45.5" x2="453.0612244897959" y2="48.09" style="stroke: black; stroke-width: 1 "/>
      <line x1="449.0612244897959" y1="47.58" x2="453.0612244897959" y2="47.58" style="stroke: black; stroke-width: 0.2857142857142857"/>
      <line x1="453.0612244897959" y1="45.75" x2="457.0612244897959" y2="45.75" style="stroke: black; stroke-width: 0.2857142857142857"/>
      <line x1="465.3061224489796" y1="43.8" x2="465.3061224489796" y2="45.85" style="stroke: black; stroke-width: 1 "/>
      <line x1="461.3061224489796" y1="45.51" x2="465.3061224489796" y2="45.51" style="stroke: black; stroke-width: 0.2857142857142857"/>
      <line x1="465.3061224489796" y1="44.41" x2="469.3061224489796" y2="44.41" style="stroke: black; stroke-width: 0.2857142857142857"/>
      <line x1="477.55102040816325" y1="43.81" x2="477.55102040816325" y2="45.17" style="stroke: black; stroke-width: 1 "/>
      <line x1="473.55102040816325" y1="44.29" x2="477.55102040816325" y2="44.29" style="stroke: black; stroke-width: 0.2857142857142857"/>
      <line x1="477.55102040816325" y1="43.99" x2="481.55102040816325" y2="43.99" style="stroke: black; stroke-width: 0.2857142857142857"/>
      <line x1="489.7959183673469" y1="44.75" x2="489.7959183673469" y2="47.25" style="stroke: black; stroke-width: 1 "/>
      <line x1="485.7959183673469" y1="44.89" x2="489.7959183673469" y2="44.89" style="stroke: black; stroke-width: 0.2857142857142857"/>
      <line x1="489.7959183673469" y1="45.67" x2="493.7959183673469" y2="45.67" style="stroke: black; stroke-width: 0.2857142857142857"/>
      <line x1="502.0408163265306" y1="45.16" x2="502.0408163265306" y2="47.3" style="stroke: black; stroke-width: 1 "/>
      <line x1="498.0408163265306" y1="46.99" x2="502.0408163265306" y2="46.99" style="stroke: black; stroke-width: 0.2857142857142857"/>
      <line x1="502.0408163265306" y1="47.09" x2="506.0408163265306" y2="47.09" style="stroke: black; stroke-width: 0.2857142857142857"/>
      <line x1="514.2857142857142" y1="46.41" x2="514.2857142857142" y2="49.005000000000003" style="stroke: black; stroke-width: 1 "/>
      <line x1="510.2857142857142" y1="47.11" x2="514.2857142857142" y2="47.11" style="stroke: black; stroke-width: 0.2857142857142857"/>
      <line x1="514.2857142857142" y1="48.91" x2="518.2857142857142" y2="48.91" style="stroke: black; stroke-width: 0.2857142857142857"/>
      <line x1="526.530612244898" y1="47.66" x2="526.530612244898" y2="49.15" style="stroke: black; stroke-width: 1 "/>
      <line x1="522.530612244898" y1="48.15" x2="526.530612244898" y2="48.15" style="stroke: black; stroke-width: 0.2857142857142857"/>
      <line x1="526.530612244898" y1="48.15" x2="530.530612244898" y2="48.15" style="stroke: black; stroke-width: 0.2857142857142857"/>
      <line x1="538.7755102040816" y1="47.6" x2="538.7755102040816" y2="48.75" style="stroke: black; stroke-width: 1 "/>
      <line x1="534.7755102040816" y1="47.61" x2="538.7755102040816" y2="47.61" style="stroke: black; stroke-width: 0.2857142857142857"/>
      <line x1="538.7755102040816" y1="48.47" x2="542.7755102040816" y2="48.47" style="stroke: black; stroke-width: 0.2857142857142857"/>
      <line x1="551.0204081632653" y1="46.92" x2="551.0204081632653" y2="49.7" style="stroke: black; stroke-width: 1 "/>
      <line x1="547.0204081632653" y1="47.99" x2="551.0204081632653" y2="47.99" style="stroke: black; stroke-width: 0.2857142857142857"/>
      <line x1="551.0204081632653" y1="47.05" x2="555.0204081632653" y2="47.05" style="stroke: black; stroke-width: 0.2857142857142857"/>
      <line x1="563.2653061224489" y1="47.21" x2="563.2653061224489" y2="49.9" style="stroke: black; stroke-width: 1 "/>
      <line x1="559.2653061224489" y1="47.25" x2="563.2653061224489" y2="47.25" style="stroke: black; stroke-width: 0.2857142857142857"/>
      <line x1="563.2653061224489" y1="49.71" x2="567.2653061224489" y2="49.71" style="stroke: black; stroke-width: 0.2857142857142857"/>
      <line x1="575.5102040816327" y1="48.75" x2="575.5102040816327" y2="50.74" style="stroke: black; stroke-width: 1 "/>
      <line x1="571.5102040816327" y1="49.96" x2="575.5102040816327" y2="49.96" style="stroke: black; stroke-width: 0.2857142857142857"/>
      <line x1="575.5102040816327" y1="49.77" x2="579.5102040816327" y2="49.77" style="stroke: black; stroke-width: 0.2857142857142857"/>
      <line x1="587.7551020408163" y1="48.92" x2="587.7551020408163" y2="50.23" style="stroke: black; stroke-width: 1 "/>
      <line x1="583.7551020408163" y1="49.43" x2="587.7551020408163" y2="49.43" style="stroke: black; stroke-width: 0.2857142857142857"/>
      <line x1="587.7551020408163" y1="50" x2="591.7551020408163" y2="50" style="stroke: black; stroke-width: 0.2857142857142857"/>
   </g>
   <g xmlns:emath="http://www.exslt.org/math" transform="translate(20,370) scale(1,-7) translate(0,-30)">
      <line x1="0" y1="30" x2="0" y2="80" style="stroke-width:0.5;stroke:black"/>
      <line x1="-4" y1="30" x2="4" y2="30"/>
      <text y="30" transform="translate(-4,30) scale(1,-0.14285714285714285) translate(4,-30)" style="text-anchor:end;font-size:8;baseline-shift:-50%" x="-4">30.0</text>
      <line x1="-2" y1="31.25" x2="2" y2="31.25"/>
      <line x1="-2" y1="32.5" x2="2" y2="32.5"/>
      <line x1="-2" y1="33.75" x2="2" y2="33.75"/>
      <line x1="-4" y1="35" x2="4" y2="35"/>
      <text y="35" transform="translate(-4,35) scale(1,-0.14285714285714285) translate(4,-35)" style="text-anchor:end;font-size:8;baseline-shift:-50%" x="-4">35.0</text>
      <line x1="-2" y1="36.25" x2="2" y2="36.25"/>
      <line x1="-2" y1="37.5" x2="2" y2="37.5"/>
      <line x1="-2" y1="38.75" x2="2" y2="38.75"/>
      <line x1="-4" y1="40" x2="4" y2="40"/>
      <text y="40" transform="translate(-4,40) scale(1,-0.14285714285714285) translate(4,-40)" style="text-anchor:end;font-size:8;baseline-shift:-50%" x="-4">40.0</text>
      <line x1="-2" y1="41.25" x2="2" y2="41.25"/>
      <line x1="-2" y1="42.5" x2="2" y2="42.5"/>
      <line x1="-2" y1="43.75" x2="2" y2="43.75"/>
      <line x1="-4" y1="45" x2="4" y2="45"/>
      <text y="45" transform="translate(-4,45) scale(1,-0.14285714285714285) translate(4,-45)" style="text-anchor:end;font-size:8;baseline-shift:-50%" x="-4">45.0</text>
      <line x1="-2" y1="46.25" x2="2" y2="46.25"/>
      <line x1="-2" y1="47.5" x2="2" y2="47.5"/>
      <line x1="-2" y1="48.75" x2="2" y2="48.75"/>
      <line x1="-4" y1="50" x2="4" y2="50"/>
      <text y="50" transform="translate(-4,50) scale(1,-0.14285714285714285) translate(4,-50)" style="text-anchor:end;font-size:8;baseline-shift:-50%" x="-4">50.0</text>
      <line x1="-2" y1="51.25" x2="2" y2="51.25"/>
      <line x1="-2" y1="52.5" x2="2" y2="52.5"/>
      <line x1="-2" y1="53.75" x2="2" y2="53.75"/>
      <line x1="-4" y1="55" x2="4" y2="55"/>
      <text y="55" transform="translate(-4,55) scale(1,-0.14285714285714285) translate(4,-55)" style="text-anchor:end;font-size:8;baseline-shift:-50%" x="-4">55.0</text>
      <line x1="-2" y1="56.25" x2="2" y2="56.25"/>
      <line x1="-2" y1="57.5" x2="2" y2="57.5"/>
      <line x1="-2" y1="58.75" x2="2" y2="58.75"/>
      <line x1="-4" y1="60" x2="4" y2="60"/>
      <text y="60" transform="translate(-4,60) scale(1,-0.14285714285714285) translate(4,-60)" style="text-anchor:end;font-size:8;baseline-shift:-50%" x="-4">60.0</text>
      <line x1="-2" y1="61.25" x2="2" y2="61.25"/>
      <line x1="-2" y1="62.5" x2="2" y2="62.5"/>
      <line x1="-2" y1="63.75" x2="2" y2="63.75"/>
      <line x1="-4" y1="65" x2="4" y2="65"/>
      <text y="65" transform="translate(-4,65) scale(1,-0.14285714285714285) translate(4,-65)" style="text-anchor:end;font-size:8;baseline-shift:-50%" x="-4">65.0</text>
      <line x1="-2" y1="66.25" x2="2" y2="66.25"/>
      <line x1="-2" y1="67.5" x2="2" y2="67.5"/>
      <line x1="-2" y1="68.75" x2="2" y2="68.75"/>
      <line x1="-4" y1="70" x2="4" y2="70"/>
      <text y="70" transform="translate(-4,70) scale(1,-0.14285714285714285) translate(4,-70)" style="text-anchor:end;font-size:8;baseline-shift:-50%" x="-4">70.0</text>
      <line x1="-2" y1="71.25" x2="2" y2="71.25"/>
      <line x1="-2" y1="72.5" x2="2" y2="72.5"/>
      <line x1="-2" y1="73.75" x2="2" y2="73.75"/>
      <line x1="-4" y1="75" x2="4" y2="75"/>
      <text y="75" transform="translate(-4,75) scale(1,-0.14285714285714285) translate(4,-75)" style="text-anchor:end;font-size:8;baseline-shift:-50%" x="-4">75.0</text>
      <line x1="-2" y1="76.25" x2="2" y2="76.25"/>
      <line x1="-2" y1="77.5" x2="2" y2="77.5"/>
      <line x1="-2" y1="78.75" x2="2" y2="78.75"/>
      <line x1="-4" y1="80" x2="4" y2="80"/>
      <text y="80" transform="translate(-4,80) scale(1,-0.14285714285714285) translate(4,-80)" style="text-anchor:end;font-size:8;baseline-shift:-50%" x="-4">80.0</text>
   </g>
</svg>