<?xml version="1.0" encoding="UTF-8"?>

<!DOCTYPE svg
  PUBLIC "-//W3C//DTD SVG 1.0/EN" "http://www.w3.org/TR/2001/REC-SVG-20010904/DTD/svg10.dtd">
<svg xmlns:test="http://www.ora.com/XSLTCookbook/ns/test" width="500" height="500">
   <g xmlns:emath="http://www.exslt.org/math" transform="translate(20,480)                              scale(1,-32.3943661971831)                             translate(0,11)">
      <line x1="41.81818181818182" y1="-11" x2="41.81818181818182" y2="-10" style="stroke: black; stroke-width: 1 "/>
      <line x1="33.81818181818182" y1="-10" x2="41.81818181818182" y2="-10" style="stroke: black; stroke-width: 0.0617391304347826"/>
      <line x1="41.81818181818182" y1="-11" x2="49.81818181818182" y2="-11" style="stroke: black; stroke-width: 0.0617391304347826"/>
      <line x1="83.63636363636364" y1="-10" x2="83.63636363636364" y2="-8" style="stroke: black; stroke-width: 1 "/>
      <line x1="75.63636363636364" y1="-9" x2="83.63636363636364" y2="-9" style="stroke: black; stroke-width: 0.0617391304347826"/>
      <line x1="83.63636363636364" y1="-9.1" x2="91.63636363636364" y2="-9.1" style="stroke: black; stroke-width: 0.0617391304347826"/>
      <line x1="125.45454545454547" y1="-9" x2="125.45454545454547" y2="-7" style="stroke: black; stroke-width: 1 "/>
      <line x1="117.45454545454547" y1="-8" x2="125.45454545454547" y2="-8" style="stroke: black; stroke-width: 0.0617391304347826"/>
      <line x1="125.45454545454547" y1="-8" x2="133.45454545454547" y2="-8" style="stroke: black; stroke-width: 0.0617391304347826"/>
      <line x1="167.27272727272728" y1="-11" x2="167.27272727272728" y2="-8" style="stroke: black; stroke-width: 1 "/>
      <line x1="159.27272727272728" y1="-9" x2="167.27272727272728" y2="-9" style="stroke: black; stroke-width: 0.0617391304347826"/>
      <line x1="167.27272727272728" y1="-8.5" x2="175.27272727272728" y2="-8.5" style="stroke: black; stroke-width: 0.0617391304347826"/>
      <line x1="209.0909090909091" y1="-10" x2="209.0909090909091" y2="-5" style="stroke: black; stroke-width: 1 "/>
      <line x1="201.0909090909091" y1="-8" x2="209.0909090909091" y2="-8" style="stroke: black; stroke-width: 0.0617391304347826"/>
      <line x1="209.0909090909091" y1="-7.6" x2="217.0909090909091" y2="-7.6" style="stroke: black; stroke-width: 0.0617391304347826"/>
      <line x1="250.90909090909093" y1="-8" x2="250.90909090909093" y2="-6" style="stroke: black; stroke-width: 1 "/>
      <line x1="242.90909090909093" y1="-7" x2="250.90909090909093" y2="-7" style="stroke: black; stroke-width: 0.0617391304347826"/>
      <line x1="250.90909090909093" y1="-7.1" x2="258.90909090909093" y2="-7.1" style="stroke: black; stroke-width: 0.0617391304347826"/>
      <line x1="292.72727272727275" y1="-7" x2="292.72727272727275" y2="-4" style="stroke: black; stroke-width: 1 "/>
      <line x1="284.72727272727275" y1="-6" x2="292.72727272727275" y2="-6" style="stroke: black; stroke-width: 0.0617391304347826"/>
      <line x1="292.72727272727275" y1="-6.3" x2="300.72727272727275" y2="-6.3" style="stroke: black; stroke-width: 0.0617391304347826"/>
      <line x1="334.54545454545456" y1="-2" x2="334.54545454545456" y2="1.3" style="stroke: black; stroke-width: 1 "/>
      <line x1="326.54545454545456" y1="1" x2="334.54545454545456" y2="1" style="stroke: black; stroke-width: 0.0617391304347826"/>
      <line x1="334.54545454545456" y1="1.2" x2="342.54545454545456" y2="1.2" style="stroke: black; stroke-width: 0.0617391304347826"/>
      <line x1="376.3636363636364" y1="0" x2="376.3636363636364" y2="2.7" style="stroke: black; stroke-width: 1 "/>
      <line x1="368.3636363636364" y1="2" x2="376.3636363636364" y2="2" style="stroke: black; stroke-width: 0.0617391304347826"/>
      <line x1="376.3636363636364" y1="2.2" x2="384.3636363636364" y2="2.2" style="stroke: black; stroke-width: 0.0617391304347826"/>
      <line x1="418.1818181818182" y1="1" x2="418.1818181818182" y2="3.2" style="stroke: black; stroke-width: 1 "/>
      <line x1="410.1818181818182" y1="2.8" x2="418.1818181818182" y2="2.8" style="stroke: black; stroke-width: 0.0617391304347826"/>
   </g>
   <g xmlns:emath="http://www.exslt.org/math" transform="translate(20,480) scale(1,-32.857142857142854) translate(0,11)">
      <line x1="0" y1="-11" x2="0" y2="3" style="stroke-width:0.5;stroke:black"/>
      <line x1="-4" y1="-11" x2="4" y2="-11"/>
      <text x="-4" y="-11" transform="translate(-4,-11) scale(1,-0.030434782608695653) translate(4,11)" style="text-anchor:end;font-size:8;baseline-shift:-50%">-11.0</text>
      <line x1="-2" y1="-10.65" x2="2" y2="-10.65"/>
      <line x1="-2" y1="-10.3" x2="2" y2="-10.3"/>
      <line x1="-2" y1="-9.950000000000001" x2="2" y2="-9.950000000000001"/>
      <line x1="-4" y1="-9.600000000000001" x2="4" y2="-9.600000000000001"/>
      <text x="-4" y="-9.600000000000001" transform="translate(-4,-9.600000000000001) scale(1,-0.030434782608695653) translate(4,9.600000000000001)" style="text-anchor:end;font-size:8;baseline-shift:-50%">-9.6</text>
      <line x1="-2" y1="-9.250000000000002" x2="2" y2="-9.250000000000002"/>
      <line x1="-2" y1="-8.900000000000002" x2="2" y2="-8.900000000000002"/>
      <line x1="-2" y1="-8.550000000000002" x2="2" y2="-8.550000000000002"/>
      <line x1="-4" y1="-8.200000000000003" x2="4" y2="-8.200000000000003"/>
      <text x="-4" y="-8.200000000000003" transform="translate(-4,-8.200000000000003) scale(1,-0.030434782608695653) translate(4,8.200000000000003)" style="text-anchor:end;font-size:8;baseline-shift:-50%">-8.2</text>
      <line x1="-2" y1="-7.850000000000003" x2="2" y2="-7.850000000000003"/>
      <line x1="-2" y1="-7.5000000000000036" x2="2" y2="-7.5000000000000036"/>
      <line x1="-2" y1="-7.150000000000004" x2="2" y2="-7.150000000000004"/>
      <line x1="-4" y1="-6.800000000000004" x2="4" y2="-6.800000000000004"/>
      <text x="-4" y="-6.800000000000004" transform="translate(-4,-6.800000000000004) scale(1,-0.030434782608695653) translate(4,6.800000000000004)" style="text-anchor:end;font-size:8;baseline-shift:-50%">-6.8</text>
      <line x1="-2" y1="-6.450000000000005" x2="2" y2="-6.450000000000005"/>
      <line x1="-2" y1="-6.100000000000005" x2="2" y2="-6.100000000000005"/>
      <line x1="-2" y1="-5.750000000000005" x2="2" y2="-5.750000000000005"/>
      <line x1="-4" y1="-5.400000000000006" x2="4" y2="-5.400000000000006"/>
      <text x="-4" y="-5.400000000000006" transform="translate(-4,-5.400000000000006) scale(1,-0.030434782608695653) translate(4,5.400000000000006)" style="text-anchor:end;font-size:8;baseline-shift:-50%">-5.4</text>
      <line x1="-2" y1="-5.050000000000006" x2="2" y2="-5.050000000000006"/>
      <line x1="-2" y1="-4.700000000000006" x2="2" y2="-4.700000000000006"/>
      <line x1="-2" y1="-4.350000000000007" x2="2" y2="-4.350000000000007"/>
      <line x1="-4" y1="-4.000000000000007" x2="4" y2="-4.000000000000007"/>
      <text x="-4" y="-4.000000000000007" transform="translate(-4,-4.000000000000007) scale(1,-0.030434782608695653) translate(4,4.000000000000007)" style="text-anchor:end;font-size:8;baseline-shift:-50%">-4.0</text>
      <line x1="-2" y1="-3.650000000000007" x2="2" y2="-3.650000000000007"/>
      <line x1="-2" y1="-3.300000000000007" x2="2" y2="-3.300000000000007"/>
      <line x1="-2" y1="-2.950000000000007" x2="2" y2="-2.950000000000007"/>
      <line x1="-4" y1="-2.6000000000000068" x2="4" y2="-2.6000000000000068"/>
      <text x="-4" y="-2.6000000000000068" transform="translate(-4,-2.6000000000000068) scale(1,-0.030434782608695653) translate(4,2.6000000000000068)" style="text-anchor:end;font-size:8;baseline-shift:-50%">-2.6</text>
      <line x1="-2" y1="-2.2500000000000067" x2="2" y2="-2.2500000000000067"/>
      <line x1="-2" y1="-1.9000000000000066" x2="2" y2="-1.9000000000000066"/>
      <line x1="-2" y1="-1.5500000000000065" x2="2" y2="-1.5500000000000065"/>
      <line x1="-4" y1="-1.2000000000000064" x2="4" y2="-1.2000000000000064"/>
      <text x="-4" y="-1.2000000000000064" transform="translate(-4,-1.2000000000000064) scale(1,-0.030434782608695653) translate(4,1.2000000000000064)" style="text-anchor:end;font-size:8;baseline-shift:-50%">-1.2</text>
      <line x1="-2" y1="-0.8500000000000064" x2="2" y2="-0.8500000000000064"/>
      <line x1="-2" y1="-0.5000000000000064" x2="2" y2="-0.5000000000000064"/>
      <line x1="-2" y1="-0.15000000000000646" x2="2" y2="-0.15000000000000646"/>
      <line x1="-4" y1="0.19999999999999352" x2="4" y2="0.19999999999999352"/>
      <text x="-4" y="0.19999999999999352" transform="translate(-4,0.19999999999999352) scale(1,-0.030434782608695653) translate(4,-0.19999999999999352)" style="text-anchor:end;font-size:8;baseline-shift:-50%">0.2</text>
      <line x1="-2" y1="0.5499999999999935" x2="2" y2="0.5499999999999935"/>
      <line x1="-2" y1="0.8999999999999935" x2="2" y2="0.8999999999999935"/>
      <line x1="-2" y1="1.2499999999999933" x2="2" y2="1.2499999999999933"/>
      <line x1="-4" y1="1.5999999999999934" x2="4" y2="1.5999999999999934"/>
      <text x="-4" y="1.5999999999999934" transform="translate(-4,1.5999999999999934) scale(1,-0.030434782608695653) translate(4,-1.5999999999999934)" style="text-anchor:end;font-size:8;baseline-shift:-50%">1.6</text>
      <line x1="-2" y1="1.9499999999999935" x2="2" y2="1.9499999999999935"/>
      <line x1="-2" y1="2.2999999999999936" x2="2" y2="2.2999999999999936"/>
      <line x1="-2" y1="2.6499999999999937" x2="2" y2="2.6499999999999937"/>
      <line x1="-4" y1="2.999999999999994" x2="4" y2="2.999999999999994"/>
      <text x="-4" y="2.999999999999994" transform="translate(-4,2.999999999999994) scale(1,-0.030434782608695653) translate(4,-2.999999999999994)" style="text-anchor:end;font-size:8;baseline-shift:-50%">3.0</text>
   </g>
</svg>