<?xml version="1.0" encoding="UTF-8"?>
<!DOCTYPE svg PUBLIC "-//W3C//DTD SVG 1.0/EN" "http://www.w3.org/TR/2001/REC-SVG-20010904/DTD/svg10.dtd">
<svg xmlns:common="http://exslt.org/common" xmlns:xalan="http://xml.apache.org/xalan" xmlns:tree="http://www.ora.com/XSLTCookbook/ns/tree" width="500" height="500">
<g transform="scale(100)">
<g>
<rect style="fill: none; stroke: black; stroke-width:0.1;" height="1" width="2" y="0" x="1.25"/>
</g>
<g>
<rect style="fill: none; stroke: black; stroke-width:0.1;" height="1" width="2" y="0" x="1.25"/>
</g>
<g>
<rect style="fill: none; stroke: black; stroke-width:0.1;" height="1" width="2" y="0" x="1.25"/>
</g>
<g>
<rect style="fill: none; stroke: black; stroke-width:0.1;" height="1" width="2" y="0" x="1.25"/>
</g>
<g>
<rect style="fill: none; stroke: black; stroke-width:0.1;" height="1" width="2" y="0" x="1.25"/>
</g>
<g>
<rect style="fill: none; stroke: black; stroke-width:0.1;" height="1" width="2" y="0" x="1.25"/>
</g>
<g>
<rect style="fill: none; stroke: black; stroke-width:0.1;" height="1" width="2" y="0" x="1.25"/>
</g>
<g>
<rect style="fill: none; stroke: black; stroke-width:0.1;" height="1" width="2" y="0" x="1.25"/>
</g>
<g>
<rect style="fill: none; stroke: black; stroke-width:0.1;" height="1" width="2" y="0" x="1.25"/>
</g>
<g>
<rect style="fill: none; stroke: black; stroke-width:0.1;" height="1" width="2" y="0" x="1.25"/>
</g>
<g>
<rect style="fill: none; stroke: black; stroke-width:0.1;" height="1" width="2" y="0" x="1.25"/>
</g>
<g>
<rect style="fill: none; stroke: black; stroke-width:0.1;" height="1" width="2" y="0" x="1.25"/>
</g>
<g>
<rect style="fill: none; stroke: black; stroke-width:0.1;" height="1" width="2" y="0" x="1.25"/>
</g>
<g>
<rect style="fill: none; stroke: black; stroke-width:0.1;" height="1" width="2" y="0" x="1.25"/>
</g>
<g>
<rect style="fill: none; stroke: black; stroke-width:0.1;" height="1" width="2" y="0" x="1.25"/>
</g>
<g>
<rect style="fill: none; stroke: black; stroke-width:0.1;" height="1" width="2" y="0" x="1.25"/>
</g>
<g>
<rect style="fill: none; stroke: black; stroke-width:0.1;" height="1" width="2" y="0" x="1.25"/>
</g>
<g>
<rect style="fill: none; stroke: black; stroke-width:0.1;" height="1" width="2" y="0" x="1.25"/>
</g>
<g>
<rect style="fill: none; stroke: black; stroke-width:0.1;" height="1" width="2" y="0" x="1.25"/>
</g>
<g>
<rect style="fill: none; stroke: black; stroke-width:0.1;" height="1" width="2" y="0" x="1.25"/>
</g>
<g>
<rect style="fill: none; stroke: black; stroke-width:0.1;" height="1" width="2" y="0" x="1.25"/>
</g>
<g>
<rect style="fill: none; stroke: black; stroke-width:0.1;" height="1" width="2" y="0" x="1.25"/>
</g>
<g>
<rect style="fill: none; stroke: black; stroke-width:0.1;" height="1" width="2" y="0" x="1.25"/>
</g>
<g>
<rect style="fill: none; stroke: black; stroke-width:0.1;" height="1" width="2" y="0" x="1.25"/>
</g>
<g>
<rect style="fill: none; stroke: black; stroke-width:0.1;" height="1" width="2" y="0" x="1.25"/>
</g>
<g>
<rect style="fill: none; stroke: black; stroke-width:0.1;" height="1" width="2" y="0" x="1.25"/>
</g>
<g>
<rect style="fill: none; stroke: black; stroke-width:0.1;" height="1" width="2" y="0" x="1.25"/>
</g>
<g>
<rect style="fill: none; stroke: black; stroke-width:0.1;" height="1" width="2" y="0" x="1.25"/>
</g>
<g>
<rect style="fill: none; stroke: black; stroke-width:0.1;" height="1" width="2" y="0" x="1.25"/>
</g>
<g>
<rect style="fill: none; stroke: black; stroke-width:0.1;" height="1" width="2" y="0" x="1.25"/>
</g>
<g>
<rect style="fill: none; stroke: black; stroke-width:0.1;" height="1" width="2" y="0" x="1.25"/>
</g>
<g>
<rect style="fill: none; stroke: black; stroke-width:0.1;" height="1" width="2" y="0" x="1.25"/>
</g>
<g>
<rect style="fill: none; stroke: black; stroke-width:0.1;" height="1" width="2" y="0" x="1.25"/>
</g>
<g>
<rect style="fill: none; stroke: black; stroke-width:0.1;" height="1" width="2" y="0" x="1.25"/>
</g>
<g>
<rect style="fill: none; stroke: black; stroke-width:0.1;" height="1" width="2" y="0" x="1.25"/>
</g>
<g>
<rect style="fill: none; stroke: black; stroke-width:0.1;" height="1" width="2" y="0" x="1.25"/>
</g>
<g>
<rect style="fill: none; stroke: black; stroke-width:0.1;" height="1" width="2" y="0" x="1.25"/>
</g>
<g>
<rect style="fill: none; stroke: black; stroke-width:0.1;" height="1" width="2" y="0" x="1.25"/>
</g>
<g>
<rect style="fill: none; stroke: black; stroke-width:0.1;" height="1" width="2" y="0" x="1.25"/>
</g>
<g>
<rect style="fill: none; stroke: black; stroke-width:0.1;" height="1" width="2" y="0" x="1.25"/>
</g>
</g>
</svg>
