<?xml version="1.0" encoding="UTF-8"?>
<!DOCTYPE svg PUBLIC "-//W3C//DTD SVG 1.0/EN" "http://www.w3.org/TR/2001/REC-SVG-20010904/DTD/svg10.dtd">
<svg xmlns:tree="http://www.ora.com/XSLTCookbook/ns/tree" width="505" height="505">
  <g transform="scale(13.88888888888889)">
    <rect x="23.972222222222225" y="1" width="2" height="1" style="fill: none; stroke: black; stroke-width:0.2"/>
    <line x1="24.972222222222225" y1="2" x2="24.972222222222225" y2="2.5" style="stroke: black; stroke-width:0.2;"/>
    <line x1="16.916666666666668" y1="2.5" x2="31.5" y2="2.5" style="stroke: black; stroke-width:0.2;"/>
    <line x1="16.916666666666668" y1="2.5" x2="16.916666666666668" y2="3" style="stroke: black; stroke-width:0.2;"/>
    <line x1="26.5" y1="2.5" x2="26.5" y2="3" style="stroke: black; stroke-width:0.2;"/>
    <line x1="31.5" y1="2.5" x2="31.5" y2="3" style="stroke: black; stroke-width:0.2;"/>
    <g tree:THISX="17.916666666666668" tree:MAXX="25" tree:MAXY="8">
      <rect x="15.916666666666668" y="3" width="2" height="1" style="fill: none; stroke: black; stroke-width:0.2"/>
      <line x1="16.916666666666668" y1="4" x2="16.916666666666668" y2="4.5" style="stroke: black; stroke-width:0.2;"/>
      <line x1="6.5" y1="4.5" x2="24" y2="4.5" style="stroke: black; stroke-width:0.2;"/>
      <line x1="6.5" y1="4.5" x2="6.5" y2="5" style="stroke: black; stroke-width:0.2;"/>
      <line x1="14" y1="4.5" x2="14" y2="5" style="stroke: black; stroke-width:0.2;"/>
      <line x1="16.5" y1="4.5" x2="16.5" y2="5" style="stroke: black; stroke-width:0.2;"/>
      <line x1="19" y1="4.5" x2="19" y2="5" style="stroke: black; stroke-width:0.2;"/>
      <line x1="21.5" y1="4.5" x2="21.5" y2="5" style="stroke: black; stroke-width:0.2;"/>
      <line x1="24" y1="4.5" x2="24" y2="5" style="stroke: black; stroke-width:0.2;"/>
      <g tree:THISX="7.5" tree:MAXX="12.5" tree:MAXY="8">
        <rect x="5.5" y="5" width="2" height="1" style="fill: none; stroke: black; stroke-width:0.2"/>
        <line x1="6.5" y1="6" x2="6.5" y2="6.5" style="stroke: black; stroke-width:0.2;"/>
        <line x1="1.5" y1="6.5" x2="11.5" y2="6.5" style="stroke: black; stroke-width:0.2;"/>
        <line x1="1.5" y1="6.5" x2="1.5" y2="7" style="stroke: black; stroke-width:0.2;"/>
        <line x1="4" y1="6.5" x2="4" y2="7" style="stroke: black; stroke-width:0.2;"/>
        <line x1="6.5" y1="6.5" x2="6.5" y2="7" style="stroke: black; stroke-width:0.2;"/>
        <line x1="9" y1="6.5" x2="9" y2="7" style="stroke: black; stroke-width:0.2;"/>
        <line x1="11.5" y1="6.5" x2="11.5" y2="7" style="stroke: black; stroke-width:0.2;"/>
        <g tree:THISX="2.5" tree:MAXX="2.5" tree:MAXY="8">
          <rect x="0.5" y="7" width="2" height="1" style="fill: none; stroke: black; stroke-width:0.2;"/>
        </g>
        <g tree:THISX="5" tree:MAXX="5" tree:MAXY="8">
          <rect x="3" y="7" width="2" height="1" style="fill: none; stroke: black; stroke-width:0.2;"/>
        </g>
        <g tree:THISX="7.5" tree:MAXX="7.5" tree:MAXY="8">
          <rect x="5.5" y="7" width="2" height="1" style="fill: none; stroke: black; stroke-width:0.2;"/>
        </g>
        <g tree:THISX="10" tree:MAXX="10" tree:MAXY="8">
          <rect x="8" y="7" width="2" height="1" style="fill: none; stroke: black; stroke-width:0.2;"/>
        </g>
        <g tree:THISX="12.5" tree:MAXX="12.5" tree:MAXY="8">
          <rect x="10.5" y="7" width="2" height="1" style="fill: none; stroke: black; stroke-width:0.2;"/>
        </g>
      </g>
      <g tree:THISX="15" tree:MAXX="15" tree:MAXY="6">
        <rect x="13" y="5" width="2" height="1" style="fill: none; stroke: black; stroke-width:0.2;"/>
      </g>
      <g tree:THISX="17.5" tree:MAXX="17.5" tree:MAXY="6">
        <rect x="15.5" y="5" width="2" height="1" style="fill: none; stroke: black; stroke-width:0.2;"/>
      </g>
      <g tree:THISX="20" tree:MAXX="20" tree:MAXY="6">
        <rect x="18" y="5" width="2" height="1" style="fill: none; stroke: black; stroke-width:0.2;"/>
      </g>
      <g tree:THISX="22.5" tree:MAXX="22.5" tree:MAXY="6">
        <rect x="20.5" y="5" width="2" height="1" style="fill: none; stroke: black; stroke-width:0.2;"/>
      </g>
      <g tree:THISX="25" tree:MAXX="25" tree:MAXY="6">
        <rect x="23" y="5" width="2" height="1" style="fill: none; stroke: black; stroke-width:0.2;"/>
      </g>
    </g>
    <g tree:THISX="27.5" tree:MAXX="27.5" tree:MAXY="4">
      <rect x="25.5" y="3" width="2" height="1" style="fill: none; stroke: black; stroke-width:0.2;"/>
    </g>
    <g tree:THISX="32.5" tree:MAXX="35" tree:MAXY="6">
      <rect x="30.5" y="3" width="2" height="1" style="fill: none; stroke: black; stroke-width:0.2"/>
      <line x1="31.5" y1="4" x2="31.5" y2="4.5" style="stroke: black; stroke-width:0.2;"/>
      <line x1="29" y1="4.5" x2="34" y2="4.5" style="stroke: black; stroke-width:0.2;"/>
      <line x1="29" y1="4.5" x2="29" y2="5" style="stroke: black; stroke-width:0.2;"/>
      <line x1="31.5" y1="4.5" x2="31.5" y2="5" style="stroke: black; stroke-width:0.2;"/>
      <line x1="34" y1="4.5" x2="34" y2="5" style="stroke: black; stroke-width:0.2;"/>
      <g tree:THISX="30" tree:MAXX="30" tree:MAXY="6">
        <rect x="28" y="5" width="2" height="1" style="fill: none; stroke: black; stroke-width:0.2;"/>
      </g>
      <g tree:THISX="32.5" tree:MAXX="32.5" tree:MAXY="6">
        <rect x="30.5" y="5" width="2" height="1" style="fill: none; stroke: black; stroke-width:0.2;"/>
      </g>
      <g tree:THISX="35" tree:MAXX="35" tree:MAXY="6">
        <rect x="33" y="5" width="2" height="1" style="fill: none; stroke: black; stroke-width:0.2;"/>
      </g>
    </g>
  </g>
</svg>
