<?xml version="1.0" encoding="UTF-8"?>

<!DOCTYPE svg
  PUBLIC "-//W3C//DTD SVG 1.0/EN" "http://www.w3.org/TR/2001/REC-SVG-20010904/DTD/svg10.dtd">
<svg width="400" height="300">
   <path xmlns:emath="http://www.exslt.org/math" transform="translate(40,270)                                     scale(53.333333333333336,-6)                                 translate($minX,0)" d="M 0.0,0.0 L 1.0,1.0 L 2.0,4.0 L 3.0,9.0 L 4.0,16.0 L 5.0,25.0 L 6.0,36.0" style="fill: none; stroke: black; stroke-width:0.01875; "/>
   <path xmlns:emath="http://www.exslt.org/math" transform="translate(40,270)                                     scale(53.333333333333336,-6)                                 translate($minX,0)" d="M 0.0,0.0 L 1.0,1.0 L 2.0,1.4 L 3.0,1.7 L 4.0,2.0 L 5.0,2.23 L 6.0,2.45" style="fill: none; stroke: red; stroke-width:0.3; "/>
   <g xmlns:emath="http://www.exslt.org/math" transform="translate(40,270) scale(53.333333333333336,-1) translate(0,0)">
      <line x1="0" y1="0" x2="6" y2="0" style="stroke-width:0.5;stroke:black"/>
      <line x1="0" y1="240" x2="0" y2="-4"/>
      <text x="0" y="-4" transform="translate(0,-4) scale(0.01875,-1) translate(0,4)" style="text-anchor:middle;font-size:8;baseline-shift:-110%" dy="0">0.0</text>
      <line x1="0.15" y1="240" x2="0.15" y2="-2"/>
      <line x1="0.3" y1="240" x2="0.3" y2="-2"/>
      <line x1="0.44999999999999996" y1="240" x2="0.44999999999999996" y2="-2"/>
      <line x1="0.6" y1="240" x2="0.6" y2="-4"/>
      <text x="0.6" y="-4" transform="translate(0.6,-4) scale(0.01875,-1) translate(-0.6,4)" style="text-anchor:middle;font-size:8;baseline-shift:-110%" dy="0">0.6</text>
      <line x1="0.75" y1="240" x2="0.75" y2="-2"/>
      <line x1="0.9" y1="240" x2="0.9" y2="-2"/>
      <line x1="1.05" y1="240" x2="1.05" y2="-2"/>
      <line x1="1.2" y1="240" x2="1.2" y2="-4"/>
      <text x="1.2" y="-4" transform="translate(1.2,-4) scale(0.01875,-1) translate(-1.2,4)" style="text-anchor:middle;font-size:8;baseline-shift:-110%" dy="0">1.2</text>
      <line x1="1.3499999999999999" y1="240" x2="1.3499999999999999" y2="-2"/>
      <line x1="1.4999999999999998" y1="240" x2="1.4999999999999998" y2="-2"/>
      <line x1="1.6499999999999997" y1="240" x2="1.6499999999999997" y2="-2"/>
      <line x1="1.7999999999999996" y1="240" x2="1.7999999999999996" y2="-4"/>
      <text x="1.7999999999999996" y="-4" transform="translate(1.7999999999999996,-4) scale(0.01875,-1) translate(-1.7999999999999996,4)" style="text-anchor:middle;font-size:8;baseline-shift:-110%" dy="0">1.8</text>
      <line x1="1.9499999999999995" y1="240" x2="1.9499999999999995" y2="-2"/>
      <line x1="2.0999999999999996" y1="240" x2="2.0999999999999996" y2="-2"/>
      <line x1="2.2499999999999996" y1="240" x2="2.2499999999999996" y2="-2"/>
      <line x1="2.3999999999999995" y1="240" x2="2.3999999999999995" y2="-4"/>
      <text x="2.3999999999999995" y="-4" transform="translate(2.3999999999999995,-4) scale(0.01875,-1) translate(-2.3999999999999995,4)" style="text-anchor:middle;font-size:8;baseline-shift:-110%" dy="0">2.4</text>
      <line x1="2.5499999999999994" y1="240" x2="2.5499999999999994" y2="-2"/>
      <line x1="2.6999999999999993" y1="240" x2="2.6999999999999993" y2="-2"/>
      <line x1="2.849999999999999" y1="240" x2="2.849999999999999" y2="-2"/>
      <line x1="2.999999999999999" y1="240" x2="2.999999999999999" y2="-4"/>
      <text x="2.999999999999999" y="-4" transform="translate(2.999999999999999,-4) scale(0.01875,-1) translate(-2.999999999999999,4)" style="text-anchor:middle;font-size:8;baseline-shift:-110%" dy="0">3.0</text>
      <line x1="3.149999999999999" y1="240" x2="3.149999999999999" y2="-2"/>
      <line x1="3.299999999999999" y1="240" x2="3.299999999999999" y2="-2"/>
      <line x1="3.449999999999999" y1="240" x2="3.449999999999999" y2="-2"/>
      <line x1="3.5999999999999988" y1="240" x2="3.5999999999999988" y2="-4"/>
      <text x="3.5999999999999988" y="-4" transform="translate(3.5999999999999988,-4) scale(0.01875,-1) translate(-3.5999999999999988,4)" style="text-anchor:middle;font-size:8;baseline-shift:-110%" dy="0">3.6</text>
      <line x1="3.7499999999999987" y1="240" x2="3.7499999999999987" y2="-2"/>
      <line x1="3.8999999999999986" y1="240" x2="3.8999999999999986" y2="-2"/>
      <line x1="4.049999999999999" y1="240" x2="4.049999999999999" y2="-2"/>
      <line x1="4.199999999999999" y1="240" x2="4.199999999999999" y2="-4"/>
      <text x="4.199999999999999" y="-4" transform="translate(4.199999999999999,-4) scale(0.01875,-1) translate(-4.199999999999999,4)" style="text-anchor:middle;font-size:8;baseline-shift:-110%" dy="0">4.2</text>
      <line x1="4.35" y1="240" x2="4.35" y2="-2"/>
      <line x1="4.5" y1="240" x2="4.5" y2="-2"/>
      <line x1="4.65" y1="240" x2="4.65" y2="-2"/>
      <line x1="4.800000000000001" y1="240" x2="4.800000000000001" y2="-4"/>
      <text x="4.800000000000001" y="-4" transform="translate(4.800000000000001,-4) scale(0.01875,-1) translate(-4.800000000000001,4)" style="text-anchor:middle;font-size:8;baseline-shift:-110%" dy="0">4.8</text>
      <line x1="4.950000000000001" y1="240" x2="4.950000000000001" y2="-2"/>
      <line x1="5.100000000000001" y1="240" x2="5.100000000000001" y2="-2"/>
      <line x1="5.250000000000002" y1="240" x2="5.250000000000002" y2="-2"/>
      <line x1="5.400000000000002" y1="240" x2="5.400000000000002" y2="-4"/>
      <text x="5.400000000000002" y="-4" transform="translate(5.400000000000002,-4) scale(0.01875,-1) translate(-5.400000000000002,4)" style="text-anchor:middle;font-size:8;baseline-shift:-110%" dy="0">5.4</text>
      <line x1="5.5500000000000025" y1="240" x2="5.5500000000000025" y2="-2"/>
      <line x1="5.700000000000003" y1="240" x2="5.700000000000003" y2="-2"/>
      <line x1="5.850000000000003" y1="240" x2="5.850000000000003" y2="-2"/>
      <line x1="6.0000000000000036" y1="240" x2="6.0000000000000036" y2="-4"/>
      <text x="6.0000000000000036" y="-4" transform="translate(6.0000000000000036,-4) scale(0.01875,-1) translate(-6.0000000000000036,4)" style="text-anchor:middle;font-size:8;baseline-shift:-110%" dy="0">6.0</text>
   </g>
   <g xmlns:emath="http://www.exslt.org/math" transform="translate(40,270) scale(1,-6) translate(0,0)">
      <line x1="0" y1="0" x2="0" y2="40" style="stroke-width:0.5;stroke:black"/>
      <line x1="-4" y1="0" x2="320" y2="0"/>
      <text y="0" transform="translate(-4,0) scale(1,-0.16666666666666666) translate(4,0)" style="text-anchor:end;font-size:8;baseline-shift:-50%" x="-4">0.0</text>
      <line x1="-2" y1="1" x2="320" y2="1"/>
      <line x1="-2" y1="2" x2="320" y2="2"/>
      <line x1="-2" y1="3" x2="320" y2="3"/>
      <line x1="-4" y1="4" x2="320" y2="4"/>
      <text y="4" transform="translate(-4,4) scale(1,-0.16666666666666666) translate(4,-4)" style="text-anchor:end;font-size:8;baseline-shift:-50%" x="-4">4.0</text>
      <line x1="-2" y1="5" x2="320" y2="5"/>
      <line x1="-2" y1="6" x2="320" y2="6"/>
      <line x1="-2" y1="7" x2="320" y2="7"/>
      <line x1="-4" y1="8" x2="320" y2="8"/>
      <text y="8" transform="translate(-4,8) scale(1,-0.16666666666666666) translate(4,-8)" style="text-anchor:end;font-size:8;baseline-shift:-50%" x="-4">8.0</text>
      <line x1="-2" y1="9" x2="320" y2="9"/>
      <line x1="-2" y1="10" x2="320" y2="10"/>
      <line x1="-2" y1="11" x2="320" y2="11"/>
      <line x1="-4" y1="12" x2="320" y2="12"/>
      <text y="12" transform="translate(-4,12) scale(1,-0.16666666666666666) translate(4,-12)" style="text-anchor:end;font-size:8;baseline-shift:-50%" x="-4">12.0</text>
      <line x1="-2" y1="13" x2="320" y2="13"/>
      <line x1="-2" y1="14" x2="320" y2="14"/>
      <line x1="-2" y1="15" x2="320" y2="15"/>
      <line x1="-4" y1="16" x2="320" y2="16"/>
      <text y="16" transform="translate(-4,16) scale(1,-0.16666666666666666) translate(4,-16)" style="text-anchor:end;font-size:8;baseline-shift:-50%" x="-4">16.0</text>
      <line x1="-2" y1="17" x2="320" y2="17"/>
      <line x1="-2" y1="18" x2="320" y2="18"/>
      <line x1="-2" y1="19" x2="320" y2="19"/>
      <line x1="-4" y1="20" x2="320" y2="20"/>
      <text y="20" transform="translate(-4,20) scale(1,-0.16666666666666666) translate(4,-20)" style="text-anchor:end;font-size:8;baseline-shift:-50%" x="-4">20.0</text>
      <line x1="-2" y1="21" x2="320" y2="21"/>
      <line x1="-2" y1="22" x2="320" y2="22"/>
      <line x1="-2" y1="23" x2="320" y2="23"/>
      <line x1="-4" y1="24" x2="320" y2="24"/>
      <text y="24" transform="translate(-4,24) scale(1,-0.16666666666666666) translate(4,-24)" style="text-anchor:end;font-size:8;baseline-shift:-50%" x="-4">24.0</text>
      <line x1="-2" y1="25" x2="320" y2="25"/>
      <line x1="-2" y1="26" x2="320" y2="26"/>
      <line x1="-2" y1="27" x2="320" y2="27"/>
      <line x1="-4" y1="28" x2="320" y2="28"/>
      <text y="28" transform="translate(-4,28) scale(1,-0.16666666666666666) translate(4,-28)" style="text-anchor:end;font-size:8;baseline-shift:-50%" x="-4">28.0</text>
      <line x1="-2" y1="29" x2="320" y2="29"/>
      <line x1="-2" y1="30" x2="320" y2="30"/>
      <line x1="-2" y1="31" x2="320" y2="31"/>
      <line x1="-4" y1="32" x2="320" y2="32"/>
      <text y="32" transform="translate(-4,32) scale(1,-0.16666666666666666) translate(4,-32)" style="text-anchor:end;font-size:8;baseline-shift:-50%" x="-4">32.0</text>
      <line x1="-2" y1="33" x2="320" y2="33"/>
      <line x1="-2" y1="34" x2="320" y2="34"/>
      <line x1="-2" y1="35" x2="320" y2="35"/>
      <line x1="-4" y1="36" x2="320" y2="36"/>
      <text y="36" transform="translate(-4,36) scale(1,-0.16666666666666666) translate(4,-36)" style="text-anchor:end;font-size:8;baseline-shift:-50%" x="-4">36.0</text>
      <line x1="-2" y1="37" x2="320" y2="37"/>
      <line x1="-2" y1="38" x2="320" y2="38"/>
      <line x1="-2" y1="39" x2="320" y2="39"/>
      <line x1="-4" y1="40" x2="320" y2="40"/>
      <text y="40" transform="translate(-4,40) scale(1,-0.16666666666666666) translate(4,-40)" style="text-anchor:end;font-size:8;baseline-shift:-50%" x="-4">40.0</text>
   </g>
</svg>