<?xml version="1.0" encoding="UTF-8"?>

<!DOCTYPE svg
  PUBLIC "-//W3C//DTD SVG 1.0/EN" "http://www.w3.org/TR/2001/REC-SVG-20010904/DTD/svg10.dtd">
<svg width="400" height="300">
   <path xmlns:emath="http://www.exslt.org/math" transform="translate(40,270)                                     scale(0.8888888888888888,-120)                                 translate($minX,1)" d="M 0,0 L 5,0.087155743 L 10,0.173648178 L 15,0.258819045 L 20,0.342020143 L 25,0.422618262 L 30,0.5 L 35,0.573576436 L 40,0.64278761 L 45,0.707106781 L 50,0.766044443 L 55,0.819152044 L 60,0.866025404 L 65,0.906307787 L 70,0.939692621 L 75,0.965925826 L 80,0.984807753 L 85,0.996194698 L 90,1 L 95,0.996194698 L 100,0.984807753 L 105,0.965925826 L 110,0.939692621 L 115,0.906307787 L 120,0.866025404 L 125,0.819152044 L 130,0.766044443 L 135,0.707106781 L 140,0.64278761 L 145,0.573576436 L 150,0.5 L 155,0.422618262 L 160,0.342020143 L 165,0.258819045 L 170,0.173648178 L 175,0.087155743 L 180,0 L 185,-0.087155743 L 190,-0.173648178 L 195,-0.258819045 L 200,-0.342020143 L 205,-0.422618262 L 210,-0.5 L 215,-0.573576436 L 220,-0.64278761 L 225,-0.707106781 L 230,-0.766044443 L 235,-0.819152044 L 240,-0.866025404 L 245,-0.906307787 L 250,-0.939692621 L 255,-0.965925826 L 260,-0.984807753 L 265,-0.996194698 L 270,-1 L 275,-0.996194698 L 280,-0.984807753 L 285,-0.965925826 L 290,-0.939692621 L 295,-0.906307787 L 300,-0.866025404 L 305,-0.819152044 L 310,-0.766044443 L 315,-0.707106781 L 320,-0.64278761 L 325,-0.573576436 L 330,-0.5 L 335,-0.422618262 L 340,-0.342020143 L 345,-0.258819045 L 350,-0.173648178 L 355,-0.087155743 L 360,0" style="fill: none; stroke: black; stroke-width:0.008333333333333333; "/>
   <g xmlns:emath="http://www.exslt.org/math" transform="translate(40,150) scale(0.8888888888888888,-1) translate(0,0)">
      <line x1="0" y1="0" x2="360" y2="0" style="stroke-width:0.5;stroke:black"/>
      <line x1="0" y1="4" x2="0" y2="-4"/>
      <text x="0" y="-4" transform="translate(0,-4) scale(1.125,-1) translate(0,4)" style="text-anchor:middle;font-size:8;baseline-shift:-110%" dy="0">0.0</text>
      <line x1="15" y1="2" x2="15" y2="-2"/>
      <line x1="30" y1="2" x2="30" y2="-2"/>
      <line x1="45" y1="2" x2="45" y2="-2"/>
      <line x1="60" y1="4" x2="60" y2="-4"/>
      <text x="60" y="-4" transform="translate(60,-4) scale(1.125,-1) translate(-60,4)" style="text-anchor:middle;font-size:8;baseline-shift:-110%" dy="0">60.0</text>
      <line x1="75" y1="2" x2="75" y2="-2"/>
      <line x1="90" y1="2" x2="90" y2="-2"/>
      <line x1="105" y1="2" x2="105" y2="-2"/>
      <line x1="120" y1="4" x2="120" y2="-4"/>
      <text x="120" y="-4" transform="translate(120,-4) scale(1.125,-1) translate(-120,4)" style="text-anchor:middle;font-size:8;baseline-shift:-110%" dy="0">120.0</text>
      <line x1="135" y1="2" x2="135" y2="-2"/>
      <line x1="150" y1="2" x2="150" y2="-2"/>
      <line x1="165" y1="2" x2="165" y2="-2"/>
      <line x1="180" y1="4" x2="180" y2="-4"/>
      <text x="180" y="-4" transform="translate(180,-4) scale(1.125,-1) translate(-180,4)" style="text-anchor:middle;font-size:8;baseline-shift:-110%" dy="0">180.0</text>
      <line x1="195" y1="2" x2="195" y2="-2"/>
      <line x1="210" y1="2" x2="210" y2="-2"/>
      <line x1="225" y1="2" x2="225" y2="-2"/>
      <line x1="240" y1="4" x2="240" y2="-4"/>
      <text x="240" y="-4" transform="translate(240,-4) scale(1.125,-1) translate(-240,4)" style="text-anchor:middle;font-size:8;baseline-shift:-110%" dy="0">240.0</text>
      <line x1="255" y1="2" x2="255" y2="-2"/>
      <line x1="270" y1="2" x2="270" y2="-2"/>
      <line x1="285" y1="2" x2="285" y2="-2"/>
      <line x1="300" y1="4" x2="300" y2="-4"/>
      <text x="300" y="-4" transform="translate(300,-4) scale(1.125,-1) translate(-300,4)" style="text-anchor:middle;font-size:8;baseline-shift:-110%" dy="0">300.0</text>
      <line x1="315" y1="2" x2="315" y2="-2"/>
      <line x1="330" y1="2" x2="330" y2="-2"/>
      <line x1="345" y1="2" x2="345" y2="-2"/>
      <line x1="360" y1="4" x2="360" y2="-4"/>
      <text x="360" y="-4" transform="translate(360,-4) scale(1.125,-1) translate(-360,4)" style="text-anchor:middle;font-size:8;baseline-shift:-110%" dy="0">360.0</text>
   </g>
   <g xmlns:emath="http://www.exslt.org/math" transform="translate(40,270) scale(1,-120) translate(0,1)">
      <line x1="0" y1="-1" x2="0" y2="1" style="stroke-width:0.5;stroke:black"/>
      <line x1="-4" y1="-1" x2="4" y2="-1"/>
      <text y="-1" transform="translate(-4,-1) scale(1,-0.008333333333333333) translate(4,1)" style="text-anchor:end;font-size:8;baseline-shift:-50%" x="-4">-1.0</text>
      <line x1="-2" y1="-0.95" x2="2" y2="-0.95"/>
      <line x1="-2" y1="-0.8999999999999999" x2="2" y2="-0.8999999999999999"/>
      <line x1="-2" y1="-0.8499999999999999" x2="2" y2="-0.8499999999999999"/>
      <line x1="-4" y1="-0.7999999999999998" x2="4" y2="-0.7999999999999998"/>
      <text y="-0.7999999999999998" transform="translate(-4,-0.7999999999999998) scale(1,-0.008333333333333333) translate(4,0.7999999999999998)" style="text-anchor:end;font-size:8;baseline-shift:-50%" x="-4">-0.8</text>
      <line x1="-2" y1="-0.7499999999999998" x2="2" y2="-0.7499999999999998"/>
      <line x1="-2" y1="-0.6999999999999997" x2="2" y2="-0.6999999999999997"/>
      <line x1="-2" y1="-0.6499999999999997" x2="2" y2="-0.6499999999999997"/>
      <line x1="-4" y1="-0.5999999999999996" x2="4" y2="-0.5999999999999996"/>
      <text y="-0.5999999999999996" transform="translate(-4,-0.5999999999999996) scale(1,-0.008333333333333333) translate(4,0.5999999999999996)" style="text-anchor:end;font-size:8;baseline-shift:-50%" x="-4">-0.6</text>
      <line x1="-2" y1="-0.5499999999999996" x2="2" y2="-0.5499999999999996"/>
      <line x1="-2" y1="-0.4999999999999996" x2="2" y2="-0.4999999999999996"/>
      <line x1="-2" y1="-0.4499999999999996" x2="2" y2="-0.4499999999999996"/>
      <line x1="-4" y1="-0.39999999999999963" x2="4" y2="-0.39999999999999963"/>
      <text y="-0.39999999999999963" transform="translate(-4,-0.39999999999999963) scale(1,-0.008333333333333333) translate(4,0.39999999999999963)" style="text-anchor:end;font-size:8;baseline-shift:-50%" x="-4">-0.4</text>
      <line x1="-2" y1="-0.34999999999999964" x2="2" y2="-0.34999999999999964"/>
      <line x1="-2" y1="-0.29999999999999966" x2="2" y2="-0.29999999999999966"/>
      <line x1="-2" y1="-0.24999999999999967" x2="2" y2="-0.24999999999999967"/>
      <line x1="-4" y1="-0.19999999999999968" x2="4" y2="-0.19999999999999968"/>
      <text y="-0.19999999999999968" transform="translate(-4,-0.19999999999999968) scale(1,-0.008333333333333333) translate(4,0.19999999999999968)" style="text-anchor:end;font-size:8;baseline-shift:-50%" x="-4">-0.2</text>
      <line x1="-2" y1="-0.1499999999999997" x2="2" y2="-0.1499999999999997"/>
      <line x1="-2" y1="-0.09999999999999969" x2="2" y2="-0.09999999999999969"/>
      <line x1="-2" y1="-0.049999999999999684" x2="2" y2="-0.049999999999999684"/>
      <line x1="-4" y1="0.0000000000000003191891195797325" x2="4" y2="0.0000000000000003191891195797325"/>
      <text y="0.0000000000000003191891195797325" transform="translate(-4,0.0000000000000003191891195797325) scale(1,-0.008333333333333333) translate(4,-0.0000000000000003191891195797325)" style="text-anchor:end;font-size:8;baseline-shift:-50%" x="-4">0.0</text>
      <line x1="-2" y1="0.05000000000000032" x2="2" y2="0.05000000000000032"/>
      <line x1="-2" y1="0.10000000000000032" x2="2" y2="0.10000000000000032"/>
      <line x1="-2" y1="0.15000000000000033" x2="2" y2="0.15000000000000033"/>
      <line x1="-4" y1="0.20000000000000034" x2="4" y2="0.20000000000000034"/>
      <text y="0.20000000000000034" transform="translate(-4,0.20000000000000034) scale(1,-0.008333333333333333) translate(4,-0.20000000000000034)" style="text-anchor:end;font-size:8;baseline-shift:-50%" x="-4">0.2</text>
      <line x1="-2" y1="0.25000000000000033" x2="2" y2="0.25000000000000033"/>
      <line x1="-2" y1="0.3000000000000003" x2="2" y2="0.3000000000000003"/>
      <line x1="-2" y1="0.3500000000000003" x2="2" y2="0.3500000000000003"/>
      <line x1="-4" y1="0.4000000000000003" x2="4" y2="0.4000000000000003"/>
      <text y="0.4000000000000003" transform="translate(-4,0.4000000000000003) scale(1,-0.008333333333333333) translate(4,-0.4000000000000003)" style="text-anchor:end;font-size:8;baseline-shift:-50%" x="-4">0.4</text>
      <line x1="-2" y1="0.4500000000000003" x2="2" y2="0.4500000000000003"/>
      <line x1="-2" y1="0.5000000000000003" x2="2" y2="0.5000000000000003"/>
      <line x1="-2" y1="0.5500000000000004" x2="2" y2="0.5500000000000004"/>
      <line x1="-4" y1="0.6000000000000004" x2="4" y2="0.6000000000000004"/>
      <text y="0.6000000000000004" transform="translate(-4,0.6000000000000004) scale(1,-0.008333333333333333) translate(4,-0.6000000000000004)" style="text-anchor:end;font-size:8;baseline-shift:-50%" x="-4">0.6</text>
      <line x1="-2" y1="0.6500000000000005" x2="2" y2="0.6500000000000005"/>
      <line x1="-2" y1="0.7000000000000005" x2="2" y2="0.7000000000000005"/>
      <line x1="-2" y1="0.7500000000000006" x2="2" y2="0.7500000000000006"/>
      <line x1="-4" y1="0.8000000000000006" x2="4" y2="0.8000000000000006"/>
      <text y="0.8000000000000006" transform="translate(-4,0.8000000000000006) scale(1,-0.008333333333333333) translate(4,-0.8000000000000006)" style="text-anchor:end;font-size:8;baseline-shift:-50%" x="-4">0.8</text>
      <line x1="-2" y1="0.8500000000000006" x2="2" y2="0.8500000000000006"/>
      <line x1="-2" y1="0.9000000000000007" x2="2" y2="0.9000000000000007"/>
      <line x1="-2" y1="0.9500000000000007" x2="2" y2="0.9500000000000007"/>
      <line x1="-4" y1="1.0000000000000007" x2="4" y2="1.0000000000000007"/>
      <text y="1.0000000000000007" transform="translate(-4,1.0000000000000007) scale(1,-0.008333333333333333) translate(4,-1.0000000000000007)" style="text-anchor:end;font-size:8;baseline-shift:-50%" x="-4">1.0</text>
   </g>
</svg>